<svg width="130" height="53" viewBox="0 0 130 53" fill="none" xmlns="http://www.w3.org/2000/svg">
<path fill-rule="evenodd" clip-rule="evenodd" d="M9.96962 40.4673C25.1201 34.0149 45.8419 29.4206 66.6621 29.4206C87.4823 29.4206 106.639 33.233 121.692 39.6839L116.219 51.0234C101.165 44.5711 87.4823 42.4215 66.6628 42.4215C45.8434 42.4215 30.2032 45.9395 15.1512 52.3919L9.96962 40.4673ZM14.0757 26.6845C15.9323 31.474 15.8347 31.6686 11.9254 34.3086L12.4136 35.677C15.3465 34.5053 17.8873 33.8204 20.3313 32.8425C22.7752 31.8661 25.1208 31.1811 27.9553 30.008L27.4664 28.6395C22.7745 29.519 22.0903 28.9324 20.2329 24.1429L15.3457 11.7294C19.5487 10.0673 21.6013 11.1428 22.8721 12.9018L24.5335 12.1199L21.7966 5.8643L0 13.978L2.63923 20.4289L4.20295 19.6471C4.00767 17.4968 4.78953 15.933 8.89484 14.1733L14.0757 26.6845ZM34.1133 15.5417C33.1354 8.01534 35.6763 5.86505 37.9249 5.57139C40.8571 5.27847 44.2782 8.30826 45.3537 16.1276C46.3308 23.654 43.79 25.8043 41.5413 25.9996C38.6091 26.2932 35.1881 23.2634 34.1133 15.5417ZM26.9774 17.4968C28.0522 25.3161 34.3086 29.3245 40.9547 28.6395C48.7748 27.76 53.4659 21.7973 52.4888 14.1733C51.4133 6.25634 45.1577 2.34631 38.5115 3.03053C30.6922 3.81239 26.0003 9.87271 26.9774 17.4968ZM90.6083 13.5867C92.2711 6.15796 95.3009 4.88717 97.4519 5.47374C100.286 6.15796 102.338 10.1656 100.579 17.7897C98.8204 25.2184 95.7891 26.3909 93.6395 25.9027C90.805 25.2184 88.85 21.2108 90.6083 13.5867ZM83.3763 13.0001C81.6165 20.7218 85.9179 26.4892 92.1735 28.1506C99.6022 30.0072 105.956 25.9019 107.714 18.3763C109.474 10.6546 105.173 4.88717 98.9173 3.22581C91.4885 1.36843 85.136 5.47375 83.3763 13.0001ZM130 14.6622C129.218 14.0757 126.189 11.5341 123.451 10.5569C118.368 8.60192 113.774 10.4593 112.601 14.1733C110.059 21.6997 121.203 25.7074 119.248 30.1063C118.466 31.6693 116.706 32.0614 115.534 31.7677C113.969 31.4748 110.744 30.5945 110.06 24.535L108.203 24.1437C107.518 26.7836 107.617 25.8058 107.226 28.5419C109.377 31.2795 111.918 33.1361 114.361 34.0156C119.834 36.0683 124.429 34.9935 125.895 30.3993C128.339 23.1658 117.097 19.2565 119.249 14.5646C119.835 13.1962 121.105 12.5119 122.865 12.708C125.504 13.0985 127.068 15.4448 126.189 17.7904L128.046 18.4746L130 14.6622ZM78.6836 7.62404L78.5867 2.83451C75.7522 1.36843 72.1344 0.586578 68.91 0.586578C58.7444 0.684218 54.9327 8.11298 54.9327 13.978C55.0304 22.6776 62.6544 26.49 69.2037 26.49C72.6248 26.3916 75.1664 26.0003 78.3922 24.6326L78.1954 18.8652C78.0985 15.5417 78.782 16.0307 81.2252 15.1512L81.1283 13.6851L69.0084 13.5875L69.1053 15.3465C72.3311 15.5417 71.9398 16.6173 71.9398 19.9407V22.7752C71.9398 23.9484 71.7445 24.1437 70.4737 24.1437C65.0984 24.1437 62.5568 18.181 62.5568 13.1962C62.4591 5.47449 66.3692 2.93289 69.399 2.93289C74.3845 2.93289 76.4364 6.15871 76.7294 7.62478H78.6836V7.62404ZM111.135 10.1656C113.09 9.1885 114.947 7.33038 114.947 4.30059C115.046 1.66136 112.992 0 111.038 0H110.636C108.549 0.094681 107.438 1.63251 107.714 2.73687C108.203 5.96195 110.94 4.00767 111.233 6.45088C111.332 7.23274 111.038 8.01534 110.06 8.69956L111.135 10.1656Z" fill="#426F4F"/>
<path fill-rule="evenodd" clip-rule="evenodd" d="M19.841 43.3018L20.2316 44.1806L21.6007 43.7908C21.796 44.4757 21.4047 45.3538 20.6229 45.5505C19.4504 45.9403 18.3749 45.0608 18.0813 44.0844C17.69 43.1066 17.886 41.7381 19.0584 41.3468C19.7426 41.1516 20.4268 41.4452 20.8174 41.8365L21.7953 40.957C20.9158 40.1752 19.8403 39.9791 18.6671 40.3704C16.8097 40.957 16.1255 42.8137 16.7121 44.4765C17.3963 46.1378 19.0577 47.2126 20.915 46.626C22.9677 46.0395 23.2606 44.1813 22.674 42.52V42.4231L19.841 43.3018ZM27.2698 41.835C28.0516 41.4437 28.3453 40.5635 28.1493 39.7824C27.758 38.5108 26.6832 38.121 25.4124 38.5108L23.6527 38.9021L25.4124 45.0594L26.6832 44.6695L25.999 42.2249L28.3445 44.2775L29.8106 43.8877L27.2698 41.835ZM25.2171 39.5871L25.4124 39.4887C26.0966 39.3903 26.5848 39.3903 26.8785 40.1737C27.0737 40.8572 26.5855 41.1501 25.9013 41.3454L25.8037 41.4437L25.2171 39.5871ZM33.3294 37.6328L33.0364 36.6549L29.6146 37.4361L31.2774 43.4971L34.6985 42.7153L34.4049 41.7374L32.2546 42.2256L31.8633 40.5642L33.9159 40.076L33.6223 39.0005L31.5704 39.4895L31.1791 38.121L33.3294 37.6328ZM39.9763 40.369L40.7581 41.639L42.1266 41.3461L38.3142 35.4818L37.337 35.6771L36.0662 42.5193L37.4347 42.2263L37.7283 40.8579L39.9763 40.369ZM39.3897 39.4895L37.8252 39.7824L38.1189 37.4361L39.3897 39.4895ZM44.2768 35.7747L45.6453 35.6763L45.45 34.6015L41.4423 35.0912L41.6376 36.166L43.0061 35.97L43.7886 41.1508L45.0587 40.9555L44.2768 35.7747ZM54.833 34.2117C54.4425 33.8204 53.5622 33.6252 52.9757 33.6252C51.8032 33.7221 51.1183 34.6999 51.2167 35.6763C51.3143 36.6542 51.9009 37.0462 52.8788 37.3377C53.367 37.4361 54.0512 37.5344 54.1496 38.2172C54.1496 38.7069 53.8566 39.1951 53.367 39.1951C52.7811 39.1951 52.2922 38.8038 51.9985 38.4132L51.2167 39.1951C51.8032 39.88 52.4875 40.3682 53.4646 40.2698C54.833 40.1729 55.5173 39.1951 55.4196 37.9235C55.2236 35.8724 52.5851 36.4589 52.4875 35.4803C52.4875 34.9921 52.8788 34.6985 53.2693 34.6985C53.7583 34.6001 54.0512 34.7954 54.3448 35.0898L54.833 34.2117ZM61.0886 38.3163L61.6752 39.6847L63.0437 39.5878L60.2084 33.2339H59.2313L56.7873 39.8808L58.2534 39.7824L58.7423 38.4139L61.0886 38.3163ZM60.6981 37.3377L59.036 37.4361L59.7202 35.0912L60.6981 37.3377ZM64.5097 39.4895L65.8774 39.5871V35.2865H65.9758L69.3969 39.684L70.3748 39.7824L70.4717 33.3315H69.2024L69.104 37.5344L65.586 33.0386H64.6074L64.5097 39.4895ZM72.4282 39.5871L74.2848 39.7824C76.2398 39.8808 77.6075 38.6092 77.8043 36.8495C77.9012 34.9929 76.728 33.5268 74.773 33.4284L72.9164 33.3315L72.4282 39.5871ZM74.0895 34.5047H74.2848C75.8478 34.6016 76.5327 35.3834 76.4344 36.7526C76.3375 37.9243 75.6525 38.7076 73.9912 38.6092H73.7959L74.0895 34.5047ZM80.735 33.8204L79.3673 33.7221L80.8333 40.2706L81.7136 40.369L83.4733 36.3613L84.3528 40.6626L85.3292 40.7588L88.3605 34.6015L86.9906 34.407L85.1347 38.6092L84.2544 34.1134L83.4733 34.015L81.6152 38.2179L80.735 33.8204ZM91.4872 35.0912L90.2171 34.8952L89.044 41.1508L90.3155 41.3454L91.4872 35.0912ZM97.9388 36.3613C97.5475 36.0684 97.0593 35.8731 96.4727 35.7747C94.5177 35.4818 92.9533 36.7526 92.5634 38.5108C92.2705 40.2706 93.3453 42.0303 95.2012 42.3232C95.7878 42.4216 96.2774 42.3232 96.864 42.128L97.0593 40.758C96.668 41.0524 96.0814 41.2477 95.4948 41.1493C94.3232 40.9541 93.7366 39.7809 93.9319 38.7061C94.1271 37.6313 95.105 36.7511 96.2782 36.9464C96.8648 37.0448 97.353 37.3362 97.6466 37.8259L97.9388 36.3613ZM100.872 39.3911L101.457 36.9479L100.187 36.6549L98.6223 42.8122L99.9922 43.1051L100.675 40.369L103.021 40.8572L102.336 43.5948L103.608 43.8884L105.172 37.7297L103.803 37.4361L103.217 39.8808L100.872 39.3911ZM110.547 40.369L110.938 39.2942L107.517 38.4139L105.563 44.3766L108.886 45.353L109.277 44.3766L107.224 43.6917L107.712 42.1287L109.765 42.7153L110.059 41.639L108.006 41.0539L108.496 39.7824L110.547 40.369ZM116.413 41.639C116.12 41.1508 115.435 40.5642 114.848 40.369C113.773 40.076 112.699 40.5642 112.405 41.639C112.014 42.5185 112.503 43.1051 113.187 43.6917C113.578 43.9846 114.165 44.3766 113.969 44.9632C113.773 45.4514 113.285 45.7451 112.797 45.6467C112.307 45.4514 112.014 44.8648 112.014 44.3766L110.939 44.8648C111.037 45.6467 111.526 46.3309 112.405 46.6246C113.773 47.0159 114.848 46.4293 115.24 45.2561C116.021 43.3011 113.383 42.9098 113.675 41.835C113.872 41.4437 114.36 41.3454 114.751 41.4437C115.141 41.5421 115.338 41.835 115.533 42.2256L116.413 41.639Z" fill="white"/>
<path fill-rule="evenodd" clip-rule="evenodd" d="M124.917 36.5565H125.21C125.503 36.5565 125.601 36.5565 125.796 36.6549C125.796 36.7532 125.895 36.8501 125.895 36.9478C125.895 37.3376 125.503 37.3376 125.308 37.3376H124.917V36.5565ZM124.525 36.3612V38.8044H124.917V37.6327H125.112C125.405 37.6327 125.602 37.6327 125.699 38.0226C125.699 38.1209 125.797 38.4139 125.797 38.4139C125.797 38.5108 125.797 38.6091 125.895 38.8037L126.285 38.7068C126.188 38.51 126.188 38.4139 126.09 38.0218C126.09 37.7289 125.992 37.632 125.699 37.5336C125.992 37.4352 126.285 37.2407 126.285 36.947C126.188 36.6541 126.09 36.4588 125.895 36.3605C125.699 36.2621 125.602 36.2621 125.309 36.2621L124.525 36.3612ZM127.263 37.5344C127.263 36.4596 126.48 35.5793 125.308 35.5793C124.79 35.5805 124.293 35.7868 123.926 36.1532C123.56 36.5195 123.353 37.0161 123.352 37.5344C123.352 38.7075 124.329 39.4894 125.308 39.4894C126.48 39.4894 127.36 38.6091 127.263 37.5344ZM127.165 37.5344C127.165 38.5108 126.383 39.2941 125.308 39.2941C124.33 39.391 123.548 38.6091 123.548 37.5344C123.547 37.303 123.592 37.0737 123.68 36.8598C123.768 36.6458 123.898 36.4515 124.062 36.2879C124.225 36.1243 124.42 35.9947 124.633 35.9066C124.847 35.8185 125.077 35.7736 125.308 35.7746C126.383 35.7746 127.165 36.5565 127.165 37.5344Z" fill="#426F4F"/>
</svg>
