<svg width="130" height="53" viewBox="0 0 130 53" fill="none" xmlns="http://www.w3.org/2000/svg">
<path fill-rule="evenodd" clip-rule="evenodd" d="M22.6864 31.3151H22.7396L19.4377 24.6579L17.627 28.2261C19.5975 29.9304 21.568 31.4208 23.378 32.7523L22.6864 31.3151ZM47.7173 28.5989C47.9303 28.3859 48.0368 28.0656 48.0368 27.5871V25.5633C48.0368 25.1372 47.9303 24.7644 47.7173 24.6047C47.5042 24.3916 47.0782 24.3384 46.4391 24.3384H38.4505V28.8652H46.4391C47.0782 28.8652 47.5042 28.7587 47.7173 28.5989Z" fill="#33A457"/>
<path fill-rule="evenodd" clip-rule="evenodd" d="M130 29.398C130 19.9715 100.922 12.355 65.0263 12.355C54.7476 12.355 45.0548 12.9941 36.4272 14.1125C44.3625 17.1481 50.3805 20.3436 50.3805 20.3436C50.3805 20.3436 43.9364 17.0949 35.7881 14.1657C25.1366 15.6037 16.1894 17.734 9.90509 20.3436C11.3963 22.3673 13.3136 24.3378 15.3373 26.2551L17.8937 21.462H21.3021L30.0363 37.8652H26.0428L25.7765 37.2793C25.7765 37.2793 21.1964 34.6165 16.3499 30.782C15.1435 33.109 13.909 35.4849 12.7817 37.8652H9.21349L14.0066 28.8647C11.397 26.6819 8.89395 24.2313 6.87017 21.7815C2.50309 24.0716 0 26.6279 0 29.3973C0 38.7705 29.1317 46.3863 65.027 46.3863C73.3351 46.3863 81.3237 45.9603 88.6199 45.2147C80.3651 41.9652 74.2405 38.7705 74.2405 38.7705C74.2405 38.7705 80.7379 42.0192 89.2597 45.1614C101.083 43.9365 111.255 41.8062 118.445 39.0901C115.569 35.7349 111.68 32.3797 107.952 29.5038L100.817 37.8652H96.6625L105.45 27.6405C100.497 24.019 96.3962 21.6217 96.3962 21.6217L101.349 21.675C101.349 21.675 103.799 23.1662 107.261 25.5628L110.722 21.462H114.823L109.817 27.3735C113.758 30.2494 118.285 33.9234 121.693 37.7054C127.018 35.2563 130 32.4337 130 29.398ZM47.984 37.8659L41.8061 31.6881H38.4509V37.8659H34.936V21.4627H48.0372C49.2621 21.4627 50.1143 21.729 50.6468 22.2616C51.1794 22.7409 51.4457 23.5397 51.4457 24.6581V28.4926C51.4457 29.611 51.1794 30.4099 50.6468 30.9425C50.1143 31.421 49.2621 31.6881 48.0372 31.6881H46.0134L53.0966 37.8659H47.984ZM72.2692 24.3918H65.2393V37.8659H61.6711V24.3918H54.6944V21.4627H72.2692V24.3918ZM92.4004 37.8659H76.6363V21.4627H92.2407V24.2853H80.1506V27.9068H87.2337V30.7294H80.1506V34.777H92.4004V37.8659Z" fill="#41A758"/>
<path fill-rule="evenodd" clip-rule="evenodd" d="M120.254 41.434C123.023 45.4283 123.29 50.5942 116.473 51.0203C108.484 51.4996 97.8327 48.3574 89.2583 45.162C89.0453 45.2152 88.8322 45.2152 88.6192 45.2152C97.4066 48.7302 108.644 52.351 117.698 52.4582C131.971 52.6712 126.112 43.7233 124.515 41.2742C123.657 40.0214 122.714 38.8291 121.692 37.706C120.68 38.1853 119.615 38.6113 118.443 39.0907C119.136 39.8895 119.721 40.6351 120.254 41.434ZM8.94648 19.0127C6.54991 15.2847 6.44339 10.385 12.6212 9.79922C19.4381 9.16013 28.3321 11.5567 35.7881 14.1663C36.0011 14.1663 36.2141 14.113 36.4272 14.113C28.7581 11.1839 19.2776 8.30728 11.5028 8.41453C-1.33215 8.62756 3.72728 16.9889 5.11197 19.279C5.67452 20.1295 6.26057 20.9641 6.86945 21.7821C7.87147 21.2822 8.88357 20.8028 9.90511 20.3441C9.58557 19.9181 9.26602 19.4388 8.94648 19.0127Z" fill="#33A457"/>
<path d="M39.9414 7.18972H41.5924V0H39.9414V7.18972Z" fill="#33A457"/>
<path fill-rule="evenodd" clip-rule="evenodd" d="M51.4457 1.27817V7.18972H49.7414V1.27817H46.4395V0H54.7476V1.27817H51.4457ZM62.0971 1.38469L63.6416 4.31383H60.4994L62.0971 1.38469ZM58.9549 7.18972L59.7538 5.592H64.3339L65.186 7.18972H67.05L62.9492 0H61.3515L57.2507 7.18972H58.9549ZM72.1627 7.18972V0H73.8137V5.80503H79.2459V7.18972H72.1627ZM84.6781 7.18972V3.94103L80.9501 0H83.1869L85.69 2.76937L88.1398 0H90.1104L86.3816 3.88777V7.18972H84.6781Z" fill="#33A457"/>
</svg>
