<svg width="130" height="29" viewBox="0 0 130 29" fill="none" xmlns="http://www.w3.org/2000/svg">
<path d="M14.66 9.36964H20.7478L21.3499 6.82747C21.3499 6.82747 22.1527 3.3487 19.6105 1.67622C19.6105 1.67622 17.8712 0.00373199 13.2551 0.00373199C13.2551 0.00373199 7.97004 -0.196966 5.42787 2.34521C5.42787 2.34521 2.3505 5.08808 2.95259 10.0386C2.95259 10.0386 3.35399 12.3801 5.69547 14.1195L11.0474 17.7321C11.0474 17.7321 13.0544 19.1369 11.9171 21.8129C11.9171 21.8129 11.5157 23.6861 8.83974 23.4854C8.83974 23.4854 6.16376 23.6192 6.09686 21.2108C6.09686 21.2108 6.23066 19.6052 6.63206 18.6687H0.678012C0.678012 18.6687 -2.13176 26.429 3.68848 28.2353C3.68848 28.2353 11.984 30.4429 16.1987 26.429C16.1987 26.429 20.0788 22.415 18.4063 16.7286C18.4063 16.7286 17.938 15.1899 16.0649 13.9857L10.0439 9.90484C10.0439 9.90484 8.37144 8.49995 9.77633 6.42607C9.77633 6.42607 10.2446 5.28878 12.653 5.35568C12.653 5.35568 15.4628 5.28878 14.9945 7.69716L14.66 9.36964ZM24.3604 0.538927H30.582L28.8426 8.29925C28.8426 8.29925 32.1207 7.56336 34.4622 8.23235C34.4622 8.23235 38.0079 8.76755 37.0044 13.3836L33.7932 27.9008H27.5716L30.5151 14.7885C30.5151 14.7885 31.0503 12.9153 29.3778 12.9153C29.3778 12.9153 28.3075 12.9153 27.8392 13.116L24.5611 27.9008H18.3394L24.3604 0.538927ZM46.7048 5.62328L47.8421 0.538927H41.6204L40.4831 5.62328H46.7048ZM41.7542 27.9677L46.1696 8.03165H39.9479L35.4657 27.9677H41.7542ZM43.4267 27.9677L47.8421 8.09855H58.8136C58.8136 8.09855 62.3592 8.29925 61.9578 11.6442L51.187 12.3801L61.4226 13.2498L50.7856 13.9188L61.0212 14.7885L50.3842 15.5244L52.3912 15.9258L49.7153 27.9008H43.4267V27.9677Z" fill="#034EA2"/>
<path d="M54.9313 16.1266L61.0861 16.4611L59.0122 27.9009H52.3223L54.9313 16.1266ZM62.4241 10.6409L64.0966 0.539067H65.3007L62.4241 10.6409ZM63.8959 10.6409L65.5683 0.472168H66.7725L63.8959 10.6409ZM65.3676 10.6409L67.0401 0.539067H68.2443L65.3676 10.6409ZM66.8394 10.6409L68.5119 0.539067H69.7161L66.8394 10.6409ZM68.3112 10.6409L69.9837 0.539067H71.1879L68.3112 10.6409Z" fill="#034EA2"/>
<path d="M66.5791 17.866L64.9067 27.9678H63.7025L66.5791 17.866ZM65.1074 17.866L63.4349 27.9678H62.2307L65.1074 17.866ZM63.6356 17.866L61.9631 27.9678H60.7589L63.6356 17.866ZM62.1638 17.866L60.4913 27.9678H59.2871L62.1638 17.866ZM71.4628 0.472168H86.6489L85.5786 5.22202H76.614L75.2092 11.3768H82.0329L80.8956 16.3942H74.0719L72.667 22.7497H81.6315L80.4942 27.9009H65.3081L68.4523 16.3942L79.7583 15.5245L69.5227 14.7217L79.8921 13.852L70.0579 13.1161L80.2935 12.2465L69.5896 11.4437L71.4628 0.472168ZM87.6524 0.472168H93.6734L92.0009 7.8311H97.219L96.0818 12.8486H90.9974L88.9904 21.6793C88.9904 21.6793 88.4552 23.218 90.2615 23.218H93.6734L92.7368 27.4995C92.7368 27.4995 90.0608 28.7037 86.7827 27.9678C86.7827 27.9678 81.5646 27.4995 83.0364 21.5455L87.6524 0.472168ZM106.853 14.1865H112.138C112.138 14.1865 113.609 10.2395 110.264 8.50009C110.264 8.50009 108.257 7.2959 104.578 7.4966C104.578 7.4966 101.501 7.4966 99.5605 8.76769C99.5605 8.76769 96.1487 10.7078 97.0852 15.3907C97.0852 15.3907 97.6204 16.9963 98.8915 17.7322L103.842 20.7427C103.842 20.7427 104.779 21.6793 104.31 22.6828C104.31 22.6828 104.177 23.7531 102.303 23.7531C102.303 23.7531 100.363 24.0207 100.363 22.2814C100.363 22.2814 100.363 21.5455 100.497 20.542H95.0783C95.0783 20.542 93.8741 23.9538 95.1452 25.6932C95.1452 25.6932 96.2824 28.1685 101.902 28.1685C101.902 28.1685 107.923 28.7037 109.662 24.9573C109.662 24.9573 111.669 21.211 109.529 18.6019C109.529 18.6019 108.525 17.5315 107.187 16.8625L103.842 15.0562C103.842 15.0562 102.37 14.3872 102.705 12.9823C102.705 12.9823 102.772 11.7113 104.846 11.6444C104.846 11.7113 107.321 11.5106 106.853 14.1865ZM114.613 7.8311H120.835L117.757 21.4117C117.757 21.4117 117.49 22.9504 118.493 22.9504H120.366L123.778 7.7642H130L125.651 27.4326L118.493 28.1016C118.493 28.1016 114.211 28.3692 112.673 26.4291C112.673 26.4291 110.666 25.0242 111.669 20.3413L114.613 7.8311Z" fill="#00929E"/>
</svg>
