<svg width="123" height="34" viewBox="0 0 123 34" fill="none" xmlns="http://www.w3.org/2000/svg">
<path fill-rule="evenodd" clip-rule="evenodd" d="M14.8017 0.00394991C13.4401 0.0400958 12.0696 0.324616 10.7668 0.793996C5.72136 2.89975 2.21263 7.49442 0.625305 13.0072C0.357309 14.042 0.139917 15.0778 0.0232175 16.1467C0.0232175 16.1813 -0.0604344 17.2337 0.0898293 16.9497C0.240093 16.6997 0.306705 16.3316 0.390357 16.0471C1.15872 13.458 2.09541 11.1018 3.53195 8.86331C6.97408 3.8003 12.5039 0.543041 18.3507 2.34775C19.4372 2.71438 20.4059 3.24985 21.3746 3.88447C21.5579 4.01821 22.9113 5.08762 22.6108 4.11839C22.3604 3.35106 21.7257 2.69785 21.1737 2.17993C19.3158 0.571957 17.0717 -0.0564654 14.8017 0.00394991ZM57.4761 5.06954C56.6912 5.06954 56.0902 5.33805 55.6719 5.88954C55.2371 6.42346 55.0373 7.2259 55.0373 8.27878V15.8973C54.0681 14.8284 53.0663 14.059 52.0475 13.5401C51.3462 13.2016 50.5958 12.9762 49.824 12.8724C49.315 12.804 48.8019 12.7707 48.2883 12.7728C45.7323 12.7728 43.6436 13.6738 42.0738 15.4775C40.5025 17.2822 39.7176 19.7892 39.7176 23.0134C39.7176 24.5341 39.919 25.9531 40.3027 27.2564C40.7044 28.5597 41.2884 29.6952 42.0568 30.6645C42.7958 31.6015 43.7305 32.3658 44.7956 32.904C45.8485 33.4203 46.984 33.6888 48.2207 33.6888C48.7727 33.6888 49.3071 33.6372 49.824 33.5375C50.1528 33.4857 50.4769 33.4079 50.7932 33.3047C51.5757 33.0379 52.3136 32.6549 52.9821 32.1687C53.6679 31.6667 54.3355 31.0156 55.0373 30.2307V30.7306C55.0373 31.6843 55.2717 32.4026 55.722 32.92C56.1728 33.4208 56.7754 33.6888 57.4761 33.6888C58.1608 33.6888 58.7624 33.4384 59.2137 32.9535C59.665 32.4521 59.8814 31.7179 59.8814 30.7306V8.01027C59.8814 7.0586 59.6815 6.32329 59.2633 5.82189C58.83 5.32101 58.2279 5.06954 57.4761 5.06954ZM120.525 5.06954C119.74 5.06954 119.138 5.33805 118.721 5.88954C118.303 6.42346 118.086 7.2259 118.086 8.27878V15.8973C117.117 14.8284 116.115 14.059 115.096 13.5401C114.461 13.2225 113.71 12.9901 112.874 12.8724C112.364 12.8039 111.851 12.7706 111.337 12.7728C108.782 12.7728 106.71 13.6738 105.122 15.4775C103.552 17.2822 102.766 19.7892 102.766 23.0134C102.766 24.5341 102.967 25.9531 103.367 27.2564C103.768 28.5597 104.336 29.6952 105.105 30.6645C105.844 31.6018 106.78 32.3662 107.845 32.904C108.897 33.4203 110.034 33.6888 111.271 33.6888C111.837 33.6888 112.372 33.6372 112.874 33.5375C113.208 33.488 113.524 33.4048 113.842 33.3047C114.624 33.038 115.362 32.655 116.03 32.1687C116.716 31.6667 117.401 31.0156 118.086 30.2307V30.7306C118.086 31.6843 118.319 32.4026 118.771 32.92C119.239 33.4208 119.823 33.6888 120.524 33.6888C121.244 33.6888 121.827 33.4384 122.28 32.9535C122.731 32.4521 122.964 31.7179 122.964 30.7306V8.01027C122.964 7.0586 122.747 6.32329 122.33 5.82189C121.895 5.32101 121.311 5.06954 120.524 5.06954H120.525ZM13.485 6.46116C12.7788 6.44268 12.0793 6.60233 11.451 6.92538C9.3628 7.97722 8.5268 10.5333 9.5962 12.6215C10.6486 14.7102 13.2036 15.5462 15.2923 14.4773C17.3805 13.4244 18.216 10.8684 17.1471 8.78121C16.8037 8.09933 16.2818 7.5234 15.6368 7.11482C14.9919 6.70624 14.2482 6.48032 13.485 6.46116ZM71.6933 12.7051C70.2062 12.7221 68.8533 12.9726 67.6171 13.4394C66.3468 13.9418 65.2785 14.6606 64.4099 15.5797C63.5404 16.5144 62.8722 17.6349 62.4209 18.9372C61.9696 20.241 61.7362 21.661 61.7362 23.1807C61.7362 26.422 62.6718 28.9604 64.5091 30.8478C66.2467 32.6365 68.6364 33.5711 71.6933 33.6708C71.8766 33.6883 72.0439 33.6888 72.2278 33.6888C73.6814 33.6888 74.9511 33.5045 76.0706 33.1208C77.1896 32.7356 78.1082 32.2688 78.843 31.6998C79.5953 31.1163 80.1298 30.5142 80.498 29.8956C80.8656 29.278 81.0484 28.727 81.0484 28.2763C81.0484 27.7583 80.8821 27.3406 80.5646 27.0556C80.2315 26.7726 79.7957 26.6213 79.2778 26.6213C78.7769 26.6213 78.4103 26.739 78.1418 26.9559C77.6279 27.4451 77.1046 27.9242 76.572 28.393C76.1513 28.7466 75.7104 29.0756 75.2516 29.3782C74.7662 29.6787 74.2829 29.9137 73.7645 30.0469C73.2636 30.1966 72.6956 30.2638 72.0775 30.2638C71.9432 30.2638 71.81 30.2638 71.6933 30.2467C70.9255 30.1966 70.2062 29.9798 69.5555 29.578C68.8032 29.1277 68.1846 28.4601 67.7348 27.591C67.2665 26.6889 67.0321 25.6531 67.0155 24.484H77.1059C78.4433 24.484 79.4952 24.2837 80.2465 23.916C80.9823 23.5153 81.35 22.6793 81.35 21.393C81.35 19.9895 80.9988 18.6201 80.28 17.2672C79.5618 15.9298 78.4764 14.8284 77.0398 13.9749C75.6022 13.1239 73.8641 12.7051 71.8606 12.7051H71.6933ZM92.3259 12.7051C90.8388 12.7221 89.4688 12.9726 88.2497 13.4394C86.9794 13.9418 85.9105 14.6606 85.0239 15.5797C84.1719 16.5144 83.5048 17.6349 83.0545 18.9372C82.6027 20.241 82.3688 21.661 82.3688 23.1807C82.3688 26.422 83.2874 28.9604 85.1251 30.8478C86.8617 32.6365 89.2685 33.5711 92.3259 33.6708C92.4937 33.6883 92.6755 33.6888 92.8593 33.6888C94.2969 33.6888 95.5832 33.5045 96.7022 33.1208C97.8211 32.7356 98.7403 32.2688 99.4751 31.6998C100.211 31.1163 100.761 30.5142 101.13 29.8956C101.497 29.278 101.681 28.727 101.681 28.2763C101.681 27.7583 101.513 27.3406 101.179 27.0556C100.862 26.7726 100.428 26.6213 99.8933 26.6213C99.4079 26.6213 99.0408 26.739 98.7733 26.9559C98.1217 27.5575 97.6053 28.0418 97.2041 28.393C96.7775 28.7467 96.331 29.0757 95.8667 29.3782C95.4004 29.6787 94.898 29.9137 94.3976 30.0469C93.8787 30.1966 93.3287 30.2638 92.7101 30.2638C92.5759 30.2638 92.4426 30.2638 92.3259 30.2467C91.557 30.1966 90.8383 29.9798 90.1866 29.578C89.4183 29.1277 88.8167 28.4601 88.3494 27.591C87.898 26.6889 87.6636 25.6531 87.6471 24.484H97.7204C99.0744 24.484 100.127 24.2837 100.862 23.916C101.614 23.5153 101.98 22.6793 101.98 21.393C101.98 19.9895 101.614 18.6201 100.896 17.2672C100.177 15.9298 99.1074 14.8284 97.6538 13.9749C96.2168 13.1239 94.4973 12.7051 92.4752 12.7051H92.3259ZM22.16 12.7397C21.4082 12.7397 20.8226 12.9896 20.4054 13.474C19.9711 13.9418 19.7537 14.6771 19.7537 15.6624V30.5472C19.7537 31.549 19.9876 32.3349 20.4715 32.8699C20.9569 33.4203 21.5574 33.6888 22.3097 33.6888C23.0781 33.6888 23.6957 33.4203 24.1811 32.904C24.6654 32.369 24.9164 31.5991 24.9164 30.5472V24.1159C24.9164 21.9936 25.0331 20.5741 25.2835 19.8052C25.6341 18.837 26.2032 18.0857 26.9545 17.5342C27.7069 16.9992 28.5418 16.7152 29.461 16.7152C30.8629 16.7152 31.8156 17.1665 32.284 18.0676C32.7513 18.9707 32.9862 20.2725 32.9862 21.9776V30.5472C32.9862 31.549 33.2191 32.3349 33.704 32.8699C34.1878 33.4203 34.8064 33.6888 35.5748 33.6888C36.3261 33.6888 36.9442 33.4203 37.412 32.8859C37.8804 32.369 38.1303 31.5826 38.1303 30.5472V20.9753C38.1303 19.8398 38.0807 18.9031 37.98 18.1848C37.8799 17.4495 37.6635 16.7658 37.3124 16.1302C36.7779 15.0448 35.9925 14.2093 34.9231 13.6242C33.8537 13.0392 32.6351 12.7397 31.2812 12.7397C29.8777 12.7397 28.6415 13.0227 27.5556 13.5747C26.4867 14.1422 25.5014 15.0112 24.5813 16.2133V15.5797C24.5813 14.9782 24.4816 14.4603 24.2647 14.0255C24.0479 13.5917 23.7468 13.2736 23.3797 13.0562C23.011 12.8388 22.6103 12.7397 22.16 12.7397ZM71.6773 16.2975H71.6933C73.0287 16.2975 74.1151 16.7318 74.9335 17.6008C75.7701 18.4688 76.2369 19.7892 76.3701 21.5603H67.015C67.1994 19.8233 67.7002 18.5029 68.5187 17.6179C69.3371 16.7323 70.3895 16.2975 71.6768 16.2975H71.6773ZM92.3089 16.2975H92.3259C93.6623 16.2975 94.7467 16.7318 95.5651 17.6008C96.3846 18.4688 96.8689 19.7892 96.9862 21.5603H87.6476C87.8144 19.8233 88.3158 18.5029 89.1513 17.6179C89.9702 16.7323 91.0226 16.2975 92.3089 16.2975ZM49.759 16.598H49.824C50.7096 16.598 51.5286 16.8655 52.2639 17.3839C53.0322 17.9013 53.6348 18.6532 54.0851 19.6389C54.5204 20.6247 54.7538 21.8108 54.7538 23.1812C54.7538 24.6508 54.5204 25.87 54.0851 26.8387C53.6348 27.8079 53.0322 28.5257 52.2809 28.993C51.5451 29.4608 50.7096 29.6963 49.824 29.6963H49.8085C48.9064 29.6963 48.0869 29.4453 47.3351 28.961C46.5678 28.4601 45.9822 27.7248 45.5485 26.7561C45.1137 25.7703 44.8968 24.5842 44.8968 23.1807C44.8968 21.8609 45.0982 20.6913 45.4989 19.7055C45.9161 18.7038 46.4841 17.9344 47.2355 17.3999C47.9708 16.8479 48.8228 16.598 49.759 16.598ZM112.823 16.598H112.874C113.759 16.598 114.578 16.8655 115.33 17.3839C116.082 17.9013 116.684 18.6532 117.134 19.6389C117.585 20.6247 117.803 21.8108 117.803 23.1812C117.803 24.6508 117.585 25.87 117.134 26.8387C116.684 27.8079 116.08 28.5257 115.346 28.993C114.606 29.4588 113.748 29.7029 112.874 29.6963H112.858C111.956 29.6963 111.136 29.4453 110.384 28.961C109.634 28.4601 109.032 27.7248 108.598 26.7561C108.164 25.7703 107.946 24.5842 107.946 23.1807C107.946 21.8609 108.145 20.6918 108.563 19.7055C108.964 18.7038 109.549 17.9344 110.285 17.3999C111.038 16.8479 111.872 16.598 112.823 16.598ZM16.3457 16.7658C15.0083 17.5662 13.4385 18.018 11.7681 18.018C11.418 18.018 11.0833 18.002 10.7322 17.968V30.2638C10.7322 31.3998 10.9997 32.2518 11.5181 32.8203C12.0526 33.4048 12.7048 33.6888 13.5232 33.6888C14.3577 33.6888 15.0439 33.4048 15.5603 32.8368C16.0792 32.2688 16.3457 31.4168 16.3457 30.2638V16.7664V16.7658Z" fill="#2164F3"/>
</svg>
