<svg width="130" height="36" viewBox="0 0 130 36" fill="none" xmlns="http://www.w3.org/2000/svg">
<path d="M17.8754 32.8687C15.9198 33.2121 13.9298 33.315 11.8713 33.5893L5.59241 15.1993V34.3785C3.63683 34.5843 1.85275 34.8588 0 35.1333V0H5.21523L12.3515 19.9343V0H17.8754V32.8687ZM28.683 12.8662C30.8104 12.8662 34.0698 12.7632 36.0254 12.7632V18.2527C33.5893 18.2527 30.7417 18.2527 28.683 18.3556V26.5215C31.9083 26.3157 35.1334 26.041 38.3927 25.938V31.2215L23.1933 32.4226V0H38.3927V5.48958H28.683V12.8662ZM58.807 5.48971H53.1116V30.7417C51.2588 30.7417 49.4061 30.7417 47.6223 30.8101V5.48971H41.9269V0H58.8072L58.807 5.48971ZM67.7275 12.4889H75.2414V17.9783H67.7275V30.4329H62.3405V0H77.6774V5.48958H67.7275V12.4889ZM86.5979 25.6294C89.7202 25.6978 92.8765 25.9384 95.9302 26.1097V31.5307C91.024 31.2217 86.1176 30.9133 81.1085 30.8101V0H86.5979V25.6294ZM100.562 31.9081C102.312 32.0112 104.165 32.1142 105.949 32.3197V0H100.562V31.9081ZM130 0L123.035 16.7089L130 35.1333C127.941 34.8588 125.883 34.4814 123.824 34.1382L119.879 23.9827L115.865 33.315C113.874 32.9716 111.953 32.8687 109.963 32.5942L117.031 16.5029L110.649 0H116.55L120.153 9.22936L123.996 0H130Z" fill="#D81F26"/>
</svg>
