<svg width="130" height="46" viewBox="0 0 130 46" fill="none" xmlns="http://www.w3.org/2000/svg">
<path d="M130 4.96425L126.166 6.95319L121.9 15.4361H119.744L119.145 16.6103H121.277C120.535 18.096 120.007 19.1504 119.6 19.9412C115.454 25.3329 112.603 27.6813 110.542 27.3219C109.128 27.0583 108.529 25.1891 108.96 22.9606C110.494 22.7209 114.328 21.6426 116.197 19.2463C118.618 16.155 115.718 13.6149 111.668 15.9154C109.416 17.2094 107.379 19.438 106.468 22.5772C106.276 23.2242 106.157 23.8472 106.109 24.3984C105.486 25.1412 104.407 26.3633 103.185 27.0583C101.604 27.9689 100.597 27.3698 101.268 25.5725C102.131 23.2481 104.719 20.1808 105.294 17.5209C105.845 15.0527 103.688 13.7827 101.005 15.8675C99.9023 16.7301 98.7521 18.1679 97.6258 19.6297C97.53 19.7495 97.4341 19.6776 97.506 19.5578C98.4885 17.7845 99.7585 15.4122 99.7585 15.4122H94.7502L94.1512 16.6103H96.2599L94.5825 19.9412C90.4369 25.3329 87.5134 27.6573 85.4525 27.2979C84.0387 27.0343 83.4396 25.1652 83.871 22.9366C85.4046 22.697 89.2387 21.6186 91.1078 19.2223C93.6479 15.9873 90.4848 13.6629 86.5788 15.8914C84.3263 17.1854 82.2894 19.414 81.3788 22.5532C79.7014 28.1606 83.5115 30.461 88.2083 27.4896C89.9576 26.3873 91.7309 24.5182 93.0009 22.8887C93.0968 22.7689 93.1926 22.8168 93.1207 22.9606L90.4848 28.2564H93.2406C93.2406 28.2564 97.3862 19.7016 101.292 16.5624C102.203 15.8195 103.76 15.532 102.802 17.7366C101.724 20.2288 100.118 21.9062 99.0396 24.7818C98.0332 27.5136 99.5908 29.3827 102.418 28.2085C103.856 27.6094 105.198 26.2914 106.061 25.285C106.181 28.8555 109.44 29.9578 113.274 27.5136C114.927 26.4592 117.659 23.2721 117.994 22.8647C118.09 22.7449 118.186 22.8168 118.114 22.9606C118.018 23.1283 117.899 23.3919 117.755 23.6555C115.742 27.7292 118.186 30.1495 121.948 27.4177C124.225 25.7163 125.998 22.9606 125.998 22.9606V22.05C125.998 22.05 123.578 25.6205 121.229 26.9864C119.097 28.2325 119.073 26.555 119.864 24.9016C120.798 22.9366 120.798 22.9366 124.009 16.6583H127.58L128.179 15.4601H124.632L130 4.96425ZM112.459 16.6583C114.041 15.2444 115.478 15.6278 114.783 17.5449C113.465 20.9716 109.2 22.0979 109.2 22.0979C109.2 22.0979 109.847 19.0066 112.459 16.6583ZM87.3696 16.6583C88.9512 15.2444 90.3889 15.6278 89.694 17.5449C88.376 20.9716 84.1106 22.0979 84.1106 22.0979C84.1106 22.0979 84.7576 18.9827 87.3696 16.6583ZM103.784 6.97715C101.891 4.10158 99.1355 3.07116 96.4995 3.07116C90.1014 2.83153 84.4221 8.03153 77.5447 16.6343C77.5447 16.6343 76.706 17.7126 75.1724 19.7016C74.741 18.8149 74.4055 18.12 74.2378 17.7845C73.9263 17.1615 74.2378 16.6583 74.9806 16.6583H75.5078L76.1069 15.4601H70.1641L69.565 16.6583H70.4516C71.0747 16.6583 71.4101 16.6583 71.7935 17.473C72.129 18.1679 72.9198 19.8214 73.7346 21.5228C72.9677 22.5053 72.1051 23.6315 71.1226 24.8776C64.7723 32.9772 58.5659 39.2076 52.7668 39.2555C50.6341 39.2795 48.3576 38.4168 46.5364 36.5716C46.3687 36.4039 46.2249 36.4997 46.3687 36.7873C46.8479 37.7698 49.6037 40.6214 53.6535 40.6214C59.4286 40.6214 65.7548 35.3974 72.2968 26.9864C73.2313 25.7882 74.094 24.7338 74.8369 23.7993C75.3401 24.8537 75.7475 25.6684 75.8673 25.956C76.1788 26.579 75.8673 27.0822 75.1244 27.0822H74.5972L73.9982 28.2804H79.9171L80.5161 27.0822H79.6295C79.0064 27.0822 78.671 27.0822 78.2876 26.2675C78.0959 25.8601 77.1613 23.9191 76.2267 21.9781C77.9281 19.7974 78.7429 18.767 78.7429 18.767C85.3088 10.308 91.3235 3.90987 97.7217 4.29328C99.6387 4.29328 102.035 5.46748 103.473 7.16886C103.856 7.60019 104.072 7.43245 103.784 6.97715ZM68.1272 12.8242C68.7742 13.2795 69.7567 12.9919 70.3078 12.1532C70.8829 11.3145 70.8111 10.2841 70.1641 9.82876C69.5171 9.37347 68.5346 9.66102 67.9594 10.4997C67.4083 11.3145 67.4802 12.3689 68.1272 12.8242ZM41.0489 11.0509C39.6829 10.5716 35.9687 12.1053 34.435 17.8564C33.8839 18.0002 31.871 18.3596 31.0802 18.4315C35.5853 10.2601 37.7419 6.8813 43.6848 4.34121L43.5171 3.83798C38.1733 5.17992 34.435 6.95319 30.6968 13.0398C29.8101 14.4776 28.0369 17.497 27.3899 18.6951C25.7124 18.8629 22.9806 19.0546 20.4885 19.438C13.7788 20.4684 11.694 24.1587 11.694 26.7947C11.694 30.1016 13.635 32.3062 13.635 32.3062H14.4018C11.67 26.6509 15.624 22.5053 20.7281 21.1394C21.9982 20.6841 23.9392 20.3725 26.647 19.9412C22.765 26.8666 17.0138 37.0509 13.2516 41.1007C7.40461 47.4509 2.03687 41.6278 3.6424 37.3145C5.46359 32.402 11.694 33.9836 11.694 33.9836L12.365 33.4804C6.54194 31.5394 0 33.1449 0 38.9919C0 42.4426 3.13917 44.7191 6.20645 45.0066C12.4848 45.6057 17.2774 41.508 22.9088 32.6177C26.4793 26.9864 28.3244 23.6315 30.4811 19.5099C31.7751 19.3421 33.1171 19.0785 34.1475 18.8389C33.5723 21.6426 33.6442 23.6555 33.6442 23.6555L34.6028 23.296C34.6028 23.296 34.6267 20.708 35.1779 18.6232C41.1207 16.7301 42.6544 11.626 41.0489 11.0509ZM35.5134 17.5449C36.2323 14.8131 38.2212 12.6085 39.2516 13.0398C40.282 13.4951 38.4608 16.5624 35.5134 17.5449ZM16.5106 16.0352C22.7889 16.0352 23.7714 9.92462 22.4774 5.80296C21.3991 6.73752 19.7935 7.69605 18.3318 8.29513C20.0332 9.97254 20.5843 13.6629 17.8046 14.7172C12.9401 16.5624 8.14747 7.43245 16.7263 3.86195C18.2359 3.2389 21.0396 2.40019 30.2894 2.5919C43.541 2.87946 52.3834 3.79006 57.4396 3.64628C60.6986 3.43061 62.9511 2.73568 64.6525 1.05826C62.6157 1.51356 60.9143 1.6813 56.9604 1.4896C36.2562 0.483144 19.9853 -1.88921 13.635 2.85549C7.62028 7.3366 10.1604 16.0352 16.5106 16.0352ZM57.6793 27.4896C59.5484 26.2914 61.1779 24.3984 61.9687 23.4159C62.0645 23.32 62.1364 23.344 62.0885 23.4878C60.0037 28.0647 62.6636 29.9099 65.9945 27.6573C68.6304 25.7403 70.3318 22.8887 70.3318 22.8887V21.9781C70.3318 21.9781 67.8636 25.6205 65.5871 26.9864C64.0535 27.897 63.4064 27.4896 63.8138 25.5725C64.0055 24.638 64.6765 23.2242 65.3475 21.9781C68.3189 16.5624 68.918 15.4841 68.918 15.4841H63.9336L63.3346 16.6822H65.4433L63.3346 20.9237C59.7161 25.4527 56.9364 27.7532 54.8995 27.3698C53.4857 27.1062 52.7908 25.2371 53.4378 22.5053C54.3724 22.4094 58.6857 21.6905 60.5548 19.2942C62.9751 16.203 60.0756 13.6629 56.0258 15.9633C53.7733 17.2573 52.1917 19.1025 51.0654 21.8103C50.2028 21.7145 49.6277 21.3311 49.6037 20.3486C49.5318 18.2159 51.2571 15.1007 51.2571 15.1007C51.2571 15.1007 51.0415 15.0527 50.0111 15.1246C49.1484 15.1965 48.9806 15.2924 48.4295 15.7716C47.2313 16.802 45.6018 18.4315 43.3014 21.7864C43.2055 21.9301 43.0857 21.8583 43.1816 21.6905C44.2599 19.7255 46.5843 15.4841 46.5843 15.4841H41.7917L41.1926 16.6822H43.3014L38.1014 27.0822H36.7834L36.1843 28.2804H41.3124L41.9594 27.0822H40.6175C43.6369 21.5467 46.153 18.9348 47.7106 17.3053C47.6387 17.5449 45.5779 23.0325 50.8018 22.5772C49.1244 28.3762 53.0783 30.461 57.6793 27.4896ZM56.7687 16.6583C58.3502 15.2205 59.788 15.6278 59.0931 17.5449C57.7751 20.9716 53.6295 21.6426 53.6295 21.6426C53.6295 21.6426 54.3963 18.791 56.7687 16.6583Z" fill="#0A0911"/>
</svg>
